<?xml version="1.0" encoding="UTF-8"?>
<svg xmlns="http://www.w3.org/2000/svg" viewBox="0 0 220.29 265.13">
  <defs>
    <style>.cls-1,.cls-3{fill:#002d74;}.cls-2{fill:#f5333f;}.cls-2,.cls-3{fill-rule:evenodd;}</style>
  </defs>
  <g id="Capa_2" data-name="Capa 2">
    <g id="Layer_1" data-name="Layer 1">
      <path class="cls-1" d="M68,257.48q-3,1.32-5.48,2.48a53.18,53.18,0,0,1-6.41,2.42,66.12,66.12,0,0,1-7.3,1.79,46.55,46.55,0,0,1-8.67.74,49.69,49.69,0,0,1-16.22-2.5,33.08,33.08,0,0,1-12.7-7.85A36,36,0,0,1,3,241.26a54.17,54.17,0,0,1-3-18.75,53.5,53.5,0,0,1,2.86-18.12,36.76,36.76,0,0,1,8.26-13.49,34.58,34.58,0,0,1,12.64-8.15,46.11,46.11,0,0,1,16.44-2.81,55.47,55.47,0,0,1,13.19,1.6A70.11,70.11,0,0,1,68,187.16V200.1h-.83a48.42,48.42,0,0,0-13.43-8.26,39,39,0,0,0-14.26-2.59,29.74,29.74,0,0,0-11.21,2,24.52,24.52,0,0,0-8.9,6.25,28.78,28.78,0,0,0-5.92,10.43,45.82,45.82,0,0,0-2.12,14.57,42.31,42.31,0,0,0,2.34,14.87,29.94,29.94,0,0,0,6,10.13,23.94,23.94,0,0,0,9,6,30.44,30.44,0,0,0,10.87,2,40.07,40.07,0,0,0,14.76-2.7,42.36,42.36,0,0,0,12.89-8.1H68Z"></path>
      <path class="cls-1" d="M140.65,230.5a55.4,55.4,0,0,1-2,15.55,25.13,25.13,0,0,1-6.42,11,25.8,25.8,0,0,1-9.91,6.12,41.26,41.26,0,0,1-13.22,1.92,40.24,40.24,0,0,1-13.43-2,25,25,0,0,1-9.64-6,26.11,26.11,0,0,1-6.42-10.9,54.39,54.39,0,0,1-2-15.69V181.43h10.9v49.62a48.21,48.21,0,0,0,.91,10.51,20.6,20.6,0,0,0,3.06,7,15.1,15.1,0,0,0,6.58,5.4,24.87,24.87,0,0,0,10,1.81,25.09,25.09,0,0,0,10-1.79,15.06,15.06,0,0,0,6.6-5.42,20.48,20.48,0,0,0,3.06-7.19,46.58,46.58,0,0,0,.91-10.05V181.43h10.9Z"></path>
      <path class="cls-1" d="M220.29,257.48q-3,1.32-5.48,2.48a52.77,52.77,0,0,1-6.42,2.42,65.93,65.93,0,0,1-7.29,1.79,46.59,46.59,0,0,1-8.68.74,49.68,49.68,0,0,1-16.21-2.5,33.08,33.08,0,0,1-12.7-7.85,35.82,35.82,0,0,1-8.26-13.3,54.17,54.17,0,0,1-3-18.75,53.5,53.5,0,0,1,2.86-18.12,36.63,36.63,0,0,1,8.26-13.49A34.58,34.58,0,0,1,176,182.75a46.11,46.11,0,0,1,16.44-2.81,55.53,55.53,0,0,1,13.19,1.6,70.32,70.32,0,0,1,14.62,5.62V200.1h-.83A48.42,48.42,0,0,0,206,191.84a39,39,0,0,0-14.27-2.59,29.68,29.68,0,0,0-11.2,2,24.44,24.44,0,0,0-8.9,6.25,28.64,28.64,0,0,0-5.92,10.43,45.82,45.82,0,0,0-2.12,14.57A42.31,42.31,0,0,0,166,237.38a29.78,29.78,0,0,0,6,10.13,23.86,23.86,0,0,0,9,6,30.4,30.4,0,0,0,10.87,2,40.07,40.07,0,0,0,14.76-2.7,42.36,42.36,0,0,0,12.89-8.1h.77Z"></path>
      <path class="cls-1" d="M134,77.18c-7.07-2.63-15.49-3-23.33-2.46,2.77-1.4,5.5-2.85,7.33-5.42.83-1.16.66-3.3.45-4.62-.29-1.68-2.15-2.55-4.23-3.05,1.57-.63,3.16-1.21,4.77-1.79.55-.2-.12-3.27,0-3.31a63.59,63.59,0,0,0-10.19,4.35c-.33.18-.23,3.28,0,3.31,2.89.36,6.32.6,8.76,2.39l-.26.31a14.45,14.45,0,0,1-2.6,2.14c-3.23,2.28-7.43,3.59-10.32,6.29-.34.31-.13,3.34,0,3.33a83.54,83.54,0,0,1,20.22-.37,101.82,101.82,0,0,0-12,2.48c-6.3,1.72-13,3.18-18.24,7.28-.67.52.34,3,0,3.31,5.24-4.09,11.94-5.57,18.24-7.29A124.33,124.33,0,0,1,134,80.49C134.25,80.47,134.36,77.31,134,77.18Z"></path>
      <path class="cls-2" d="M81.91,109.58s-3.69,31.21,16,33.89,60.41-25.87,87-53.86v54.06s-59.23,46.1-88,31.38S81.91,109.58,81.91,109.58Z"></path>
      <path class="cls-3" d="M72.73,153.19,32,164.19V51.3h0a50.92,50.92,0,0,1,92.92-29.17A40.73,40.73,0,0,0,72.73,61.55Z"></path>
      <path class="cls-3" d="M115.67,35.67A22.28,22.28,0,0,0,99.32,45.92a10.53,10.53,0,0,0,.15,2.88,19.82,19.82,0,0,1,31.13-5l.14.1C128.57,37.52,122.19,35.13,115.67,35.67Z"></path>
      <path class="cls-2" d="M123.65,92.49c-3.06.55-6,1.19-8.73,1.91a7.76,7.76,0,0,0,15.4-1.34,7.62,7.62,0,0,0-.1-1.18A38.62,38.62,0,0,0,123.65,92.49Z"></path>
      <path class="cls-3" d="M142.94,106.7c-15,5.36-32.89,9.47-48.74,5.54a17,17,0,0,1-5.67-2.47,5.53,5.53,0,0,1-1.36-1.37,3.14,3.14,0,0,1,.18-.31c3.49-5.87,12.83-8.73,18.7-10.92.84-.31-.18-4.91,0-5-6.34,2.37-16.19,5.42-19.42,12.17-1.38,2.91-.9,7.78,1.44,10,4.71,4.45,13.9,4.26,19.81,4.22,10.78-.07,21.5-2.42,31.73-5.8A11.07,11.07,0,0,0,142.94,106.7Z"></path>
      <path class="cls-3" d="M151.93,78.46a18.8,18.8,0,0,1-6.27-5.08s-.09-.1-.08-.1c-4.94-5.67-7.25-15.14-9-21.45.23.83-.7,3.51-.3,4.94,2.11,7.59,4.62,14.8,9.23,21.19,3,4.16,9.69,4.86,11.78,9.26C156.31,84.25,154.44,79.63,151.93,78.46Z"></path>
    </g>
  </g>
</svg>
